# xmcd
#
# Track frame offsets: 
#        182
#        19422
#        36652
#        50847
#        63652
#        76367
#        86542
#        97385
#        112627
#        128047
#        140412
#        158982
#        171375
#        188815
#
# Disc length: 2779 seconds
#
# Revision: 2
# Processed by: cddbd v1.5PL3 Copyright (c) Steve Scherf et al.
# Submitted via: ExactAudioCopy v0.90b4
#
DISCID=ca0ad90e
DTITLE=Various Artist - Popular-Minha Historia - 14 Sucessos
DYEAR=1900
DGENRE=Brega
TTITLE0=Peninha/Sonhos
TTITLE1=Jerry Adriani/Indiferença
TTITLE2=Diana/Foi Tudo Culpa Do Amor
TTITLE3=César Sampaio/Secretária Da Beira Do Cais
TTITLE4=Balthazar/Cartas De Amor
TTITLE5=Ismael Carlos/Briguinha De Amor 
TTITLE6=Maurício Reis/Fim De Noivado
TTITLE7=Julia Graciela/Anúncio De Jornal
TTITLE8=Ronnie Von/A Praça
TTITLE9=Sidney Magal/Sandra Rosa Madalena, "A Cigana" 
TTITLE10=Odair José/Üma Vida Só(Pare de Tomar a Pílula)
TTITLE11=Ademar SIlva/Amor Fingido
TTITLE12=Carlos Santos/Quero Você
TTITLE13=Markinhos Moura/Anjo Azul
EXTD=
EXTT0=
EXTT1=
EXTT2=
EXTT3=
EXTT4=
EXTT5=
EXTT6=
EXTT7=
EXTT8=
EXTT9=
EXTT10=
EXTT11=
EXTT12=
EXTT13=
PLAYORDER=
